<?xml version="1.0" encoding="iso-8859-1"?>
<!-- Generator: Adobe Illustrator 19.0.0, SVG Export Plug-In . SVG Version: 6.00 Build 0)  -->
<svg version="1.1" id="Capa_1" xmlns="http://www.w3.org/2000/svg" xmlns:xlink="http://www.w3.org/1999/xlink" x="0px" y="0px"
	 viewBox="0 0 512 512" style="enable-background:new 0 0 512 512;" xml:space="preserve">
<path style="fill:#32D736;" d="M257,512c-34.416,0-67.932-6.855-99.618-20.376c-30.537-13.03-58.022-31.64-81.694-55.312
	s-42.282-51.157-55.312-81.694C6.855,322.932,0,289.416,0,255c0-68.024,26.901-132.082,75.749-180.373
	C124.427,26.503,188.796,0,257,0c68.113,0,132.149,26.524,180.312,74.688C485.476,122.851,512,186.887,512,255
	c0,68.204-26.503,132.573-74.627,181.251C389.082,485.099,325.024,512,257,512z M257,30C131.832,30,30,130.935,30,255
	c0,125.168,101.832,227,227,227c124.065,0,225-101.832,225-227C482,130.935,381.065,30,257,30z"/>
<path style="fill:#C5C9F7;" d="M257,422c-24.813,0-45-20.187-45-45v-77h-77c-24.813,0-45-20.187-45-45s20.187-45,45-45h77v-75
	c0-24.813,20.187-45,45-45s45,20.187,45,45v75h75c24.813,0,45,20.187,45,45s-20.187,45-45,45h-75v77
	C302,401.813,281.813,422,257,422z M135,240c-8.271,0-15,6.729-15,15s6.729,15,15,15h92c8.284,0,15,6.716,15,15v92
	c0,8.271,6.729,15,15,15s15-6.729,15-15v-92c0-8.284,6.716-15,15-15h90c8.271,0,15-6.729,15-15s-6.729-15-15-15h-90
	c-8.284,0-15-6.716-15-15v-90c0-8.271-6.729-15-15-15s-15,6.729-15,15v90c0,8.284-6.716,15-15,15H135z"/>
<g>
</g>
<g>
</g>
<g>
</g>
<g>
</g>
<g>
</g>
<g>
</g>
<g>
</g>
<g>
</g>
<g>
</g>
<g>
</g>
<g>
</g>
<g>
</g>
<g>
</g>
<g>
</g>
<g>
</g>
</svg>
