<?xml version="1.0" encoding="iso-8859-1"?>
<!-- Generator: Adobe Illustrator 19.0.0, SVG Export Plug-In . SVG Version: 6.00 Build 0)  -->
<svg version="1.1" id="Capa_1" xmlns="http://www.w3.org/2000/svg" xmlns:xlink="http://www.w3.org/1999/xlink" x="0px" y="0px"
	 viewBox="0 0 512 512" style="enable-background:new 0 0 512 512;" xml:space="preserve">
<path style="fill:#32D736;" d="M466,512H46c-8.284,0-15-6.716-15-15v-30c0-74.439,60.561-135,135-135h22.457
	c6.377,0,11.911-4.321,13.458-10.508c1.333-5.333-0.563-12.406-4.143-15.443C150.353,265.806,121,185.929,121,135
	C121,60.561,181.561,0,256,0s135,60.561,135,135c0,50.929-29.353,130.806-76.773,171.049c-3.579,3.037-5.476,10.109-4.142,15.443
	c1.547,6.187,7.081,10.508,13.458,10.508H346c74.439,0,135,60.561,135,135v30C481,505.284,474.284,512,466,512z M61,482h390v-15
	c0-57.897-47.103-105-105-105h-22.457c-20.168,0-37.67-13.666-42.563-33.232c-4.11-16.443,1.579-35.191,13.835-45.592
	C333.819,250.076,361,178.519,361,135c0-57.897-47.103-105-105-105S151,77.103,151,135c0,43.519,27.181,115.076,66.184,148.175
	c12.256,10.402,17.945,29.15,13.835,45.592C226.127,348.334,208.625,362,188.457,362H166c-57.897,0-105,47.103-105,105V482z"/>
<g>
</g>
<g>
</g>
<g>
</g>
<g>
</g>
<g>
</g>
<g>
</g>
<g>
</g>
<g>
</g>
<g>
</g>
<g>
</g>
<g>
</g>
<g>
</g>
<g>
</g>
<g>
</g>
<g>
</g>
</svg>
