<?xml version="1.0" encoding="iso-8859-1"?>
<!-- Generator: Adobe Illustrator 19.0.0, SVG Export Plug-In . SVG Version: 6.00 Build 0)  -->
<svg version="1.1" id="Capa_1" xmlns="http://www.w3.org/2000/svg" xmlns:xlink="http://www.w3.org/1999/xlink" x="0px" y="0px"
	 viewBox="0 0 512 512" style="enable-background:new 0 0 512 512;" xml:space="preserve">
<path style="fill:#FEB756;" d="M335.998,356.003v-26.339c0-12.46,5.81-24.2,15.78-31.659
	c38.949-29.159,64.219-75.589,64.219-127.997c0-94.378-81.718-169.667-178.257-158.987c-70.339,7.79-128.857,63.399-139.737,133.337
	c-9.75,62.669,16.98,119.738,62.139,153.577c10,7.5,15.86,19.24,15.86,31.729v26.339H335.998z"/>
<path style="fill:#E2E2E2;" d="M176.002,356.003v65.149c0,11.51,9.34,20.85,20.85,20.85h0.15c0,16.57,6.72,31.569,17.57,42.429
	C225.431,495.28,240.43,502,257,502c33.139,0,59.999-26.859,59.999-59.999l-0.01-0.09c10.65-0.92,19.01-9.87,19.01-20.76v-65.149
	H176.002z"/>
<path style="fill:#4DBBEB;" d="M295.999,230.006v125.998H256h-39.999V250.005v-59.999c22.09,22.09,57.909,22.09,79.998,0V230.006z"
	/>
<path style="fill:#FFF5CD;" d="M256,110.008l39.999,79.998c-22.09,22.09-57.909,22.09-79.998,0L256,110.008z"/>
<path d="M20.905,18.6c4.53,3.17,10.76,2.07,13.93-2.46c3.17-4.52,2.07-10.76-2.46-13.92c-4.52-3.17-10.76-2.07-13.92,2.45
	C15.285,9.2,16.385,15.43,20.905,18.6z"/>
<path d="M20.905,322.414c-4.52,3.17-5.62,9.4-2.45,13.93c3.16,4.52,9.4,5.62,13.92,2.45c4.53-3.16,5.63-9.4,2.46-13.92
	C31.664,320.344,25.435,319.244,20.905,322.414z"/>
<path d="M369.366,43.33c-17.596-15.757-37.837-27.473-60.164-34.824c-23.308-7.676-47.72-10.173-72.562-7.425
	c-36.213,4.011-71.005,20.37-97.964,46.063c-27.005,25.738-44.959,59.717-50.554,95.676c-4.953,31.833-1.098,64.001,11.146,93.023
	c11.693,27.714,30.668,51.953,54.874,70.091c7.426,5.57,11.86,14.441,11.86,23.73v26.339v65.149
	c0,13.766,9.064,25.451,21.536,29.409c1.874,15.449,8.784,29.751,19.966,40.944C220.732,504.721,238.31,512,257,512
	c35.964,0,65.668-27.266,69.555-62.211c11.396-4.59,19.444-15.841,19.444-28.637v-65.149v-26.339c0-9.296,4.4-18.138,11.773-23.655
	c20.706-15.502,37.863-35.807,49.62-58.721c12.346-24.065,18.606-50.066,18.606-77.282C425.997,121.73,405.355,75.558,369.366,43.33
	z M226.001,209.418c9.403,4.739,19.699,7.125,29.999,7.125c10.301,0,20.597-2.386,29.999-7.125v136.585h-59.999V209.418z
	 M228.419,187.531L256,132.368l27.581,55.163C267.24,199.559,244.76,199.559,228.419,187.531z M216.001,366.003h79.998h29.999v23
	H186.001v-23H216.001z M186.001,409.002h139.997v12.15c0,5.577-4.335,10.319-9.871,10.797c-0.039,0.003-0.079,0.007-0.119,0.011
	c-0.286,0.028-0.567,0.042,17.139,0.042H214.85c-23.983,0-28.849-4.867-28.849-10.85L186.001,409.002L186.001,409.002z M257,492
	c-13.351,0-25.91-5.201-35.354-14.637c-7.04-7.047-11.719-15.822-13.646-25.362h97.993C301.347,474.796,281.147,492,257,492z
	 M345.787,289.997c-12.391,9.272-19.789,24.101-19.789,39.666v16.34h-20V190.011c0-0.361-0.024-0.722-0.063-1.082
	c-0.011-0.103-0.03-0.203-0.044-0.305c-0.036-0.258-0.079-0.515-0.135-0.77c-0.024-0.111-0.052-0.22-0.08-0.329
	c-0.064-0.251-0.138-0.5-0.222-0.746c-0.034-0.098-0.066-0.197-0.103-0.294c-0.101-0.269-0.216-0.534-0.342-0.796
	c-0.024-0.051-0.041-0.104-0.066-0.155l-0.075-0.15c-0.007-0.013-0.013-0.027-0.02-0.04l-39.904-79.808
	c-1.694-3.388-5.157-5.528-8.944-5.528c-3.788,0-7.25,2.14-8.944,5.528l-39.904,79.808c-0.007,0.013-0.013,0.027-0.02,0.04
	l-0.075,0.15c-0.025,0.05-0.042,0.104-0.066,0.155c-0.125,0.262-0.24,0.526-0.342,0.796c-0.037,0.097-0.069,0.196-0.103,0.294
	c-0.084,0.246-0.158,0.495-0.222,0.746c-0.028,0.11-0.056,0.219-0.08,0.329c-0.056,0.255-0.099,0.512-0.135,0.77
	c-0.014,0.102-0.033,0.203-0.044,0.305c-0.039,0.36-0.063,0.72-0.063,1.082v155.992h-20v-16.34c0-15.551-7.424-30.402-19.863-39.731
	c-44.56-33.391-66.882-88.582-58.254-144.038C118.015,80.783,173.091,28.24,238.842,20.959c43.367-4.801,84.986,8.438,117.184,37.27
	C387.785,86.667,406,127.41,406,170.007C405.997,217.617,384.051,261.352,345.787,289.997z"/>
<path d="M342.68,73.121c-4.114-3.686-10.436-3.337-14.121,0.777c-3.685,4.114-3.337,10.436,0.777,14.121
	c23.299,20.869,36.661,50.753,36.661,81.989c0,5.523,4.477,10,10,10c5.523,0,10-4.477,10-10
	C385.997,133.091,370.209,97.777,342.68,73.121z"/>
<path d="M66.004,170.007c0-5.523-4.477-10-10-10H10.005c-5.523,0-10,4.477-10,10c0,5.523,4.477,10,10,10h45.999
	C61.527,180.006,66.004,175.53,66.004,170.007z"/>
<path d="M501.995,160.007h-45.999c-5.523,0-10,4.477-10,10c0,5.523,4.477,10,10,10h45.999c5.523,0,10-4.477,10-10
	C511.995,164.484,507.518,160.007,501.995,160.007z"/>
<path d="M86.438,276.533l-32.769,22.94c-4.524,3.167-5.625,9.403-2.458,13.927c1.946,2.779,5.048,4.266,8.201,4.266
	c1.98,0,3.981-0.587,5.726-1.809l32.769-22.94c4.524-3.167,5.625-9.403,2.458-13.927C97.198,274.466,90.962,273.366,86.438,276.533z
	"/>
<path d="M419.836,65.29c1.98,0,3.981-0.587,5.726-1.809l32.769-22.94c4.524-3.167,5.625-9.403,2.458-13.927
	s-9.402-5.625-13.927-2.458l-32.769,22.94c-4.524,3.167-5.625,9.403-2.458,13.927C413.581,63.803,416.683,65.29,419.836,65.29z"/>
<path d="M53.669,40.541l32.769,22.94c1.746,1.222,3.746,1.809,5.726,1.809c3.153,0,6.256-1.487,8.201-4.266
	c3.167-4.524,2.067-10.76-2.458-13.927l-32.769-22.94c-4.524-3.167-10.76-2.067-13.927,2.458S49.145,37.374,53.669,40.541z"/>
<path d="M458.331,299.472l-32.769-22.94c-4.525-3.167-10.76-2.067-13.927,2.458c-3.167,4.524-2.067,10.76,2.458,13.927l32.769,22.94
	c1.746,1.222,3.746,1.809,5.726,1.809c3.153,0,6.256-1.487,8.201-4.266C463.956,308.875,462.855,302.639,458.331,299.472z"/>
<path d="M491.095,18.6c4.52-3.17,5.62-9.4,2.45-13.93c-3.16-4.52-9.4-5.62-13.92-2.45c-4.53,3.16-5.63,9.4-2.46,13.92
	C480.336,20.67,486.565,21.77,491.095,18.6z"/>
<path d="M491.095,322.414c-4.53-3.17-10.76-2.07-13.93,2.46c-3.17,4.52-2.07,10.76,2.46,13.92c4.52,3.17,10.76,2.07,13.92-2.45
	C496.715,331.814,495.615,325.584,491.095,322.414z"/>
<g>
</g>
<g>
</g>
<g>
</g>
<g>
</g>
<g>
</g>
<g>
</g>
<g>
</g>
<g>
</g>
<g>
</g>
<g>
</g>
<g>
</g>
<g>
</g>
<g>
</g>
<g>
</g>
<g>
</g>
</svg>
