<?xml version="1.0" encoding="iso-8859-1"?>
<!-- Generator: Adobe Illustrator 19.0.0, SVG Export Plug-In . SVG Version: 6.00 Build 0)  -->
<svg version="1.1" id="Capa_1" xmlns="http://www.w3.org/2000/svg" xmlns:xlink="http://www.w3.org/1999/xlink" x="0px" y="0px"
	 viewBox="0 0 512 512" style="enable-background:new 0 0 512 512;" xml:space="preserve">
<path style="fill:#AA3DC8;" d="M257,512c-34.416,0-67.932-6.855-99.618-20.376c-30.537-13.03-58.022-31.64-81.694-55.312
	s-42.282-51.157-55.312-81.694C6.855,322.932,0,289.416,0,255c0-68.024,26.901-132.082,75.749-180.373
	C124.427,26.503,188.796,0,257,0c68.113,0,132.149,26.524,180.312,74.688C485.476,122.851,512,186.887,512,255
	c0,68.204-26.503,132.573-74.627,181.251C389.082,485.099,325.024,512,257,512z M257,30C131.832,30,30,130.935,30,255
	c0,125.168,101.832,227,227,227c124.065,0,225-101.832,225-227C482,130.935,381.065,30,257,30z"/>
<g>
	<path style="fill:#C5C9F7;" d="M257,300c-24.813,0-45-20.187-45-45V105c0-24.813,20.187-45,45-45s45,20.187,45,45v150
		C302,279.813,281.813,300,257,300z M257,90c-8.271,0-15,6.729-15,15v150c0,8.271,6.729,15,15,15s15-6.729,15-15V105
		C272,96.729,265.271,90,257,90z"/>
	<path style="fill:#C5C9F7;" d="M257,452c-52.582,0-103.567-20.81-139.882-57.094C80.815,358.572,60,307.582,60,255
		c0-52.065,20.276-101.033,57.094-137.882c17.535-17.535,46.082-17.548,63.641-0.032c17.555,17.554,17.564,46.104,0.035,63.656
		C160.925,200.586,150,226.956,150,255c0,28.909,11.213,56.702,30.763,76.252c18.813,18.813,46.234,29.602,75.233,29.602
		c29.004,0,56.434-10.794,75.256-29.616C350.793,311.696,362,283.909,362,255c0-28.044-10.925-54.414-30.763-74.252
		c-17.537-17.558-17.527-46.108,0.015-63.649c17.572-17.528,46.119-17.516,63.649,0.015C431.724,153.967,452,202.935,452,255
		c0,52.582-20.81,103.567-57.094,139.882C358.038,431.718,309.065,452,257,452z M148.931,133.938c-3.847,0-7.693,1.462-10.619,4.388
		C107.159,169.506,90,210.943,90,255c0,44.689,17.616,87.952,48.331,118.693C169.054,404.39,212.311,422,257,422
		c44.057,0,85.5-17.164,116.693-48.331C404.39,342.946,422,299.689,422,255c0-44.057-17.159-85.494-48.316-116.678
		c-5.844-5.844-15.371-5.844-21.232,0.003c-5.838,5.838-5.842,15.362,0.005,21.217C377.954,185.039,392,218.942,392,255
		c0,36.806-14.41,72.325-39.535,97.45c-24.406,24.406-59.567,38.403-96.469,38.403c-36.896,0-72.05-13.992-96.446-38.389
		C134.416,327.331,120,291.806,120,255c0-36.058,14.046-69.961,39.55-95.465c5.84-5.848,5.837-15.372-0.015-21.224
		C156.613,135.397,152.771,133.938,148.931,133.938z"/>
</g>
<g>
</g>
<g>
</g>
<g>
</g>
<g>
</g>
<g>
</g>
<g>
</g>
<g>
</g>
<g>
</g>
<g>
</g>
<g>
</g>
<g>
</g>
<g>
</g>
<g>
</g>
<g>
</g>
<g>
</g>
</svg>
